<svg width="25" height="26" viewBox="0 0 25 26" fill="none" xmlns="http://www.w3.org/2000/svg">
<path d="M12.4966 9.22399C10.2014 9.22399 8.32828 11.0799 8.32828 13.354C8.32828 15.6281 10.2014 17.484 12.4966 17.484C14.7919 17.484 16.665 15.6281 16.665 13.354C16.665 11.0799 14.7919 9.22399 12.4966 9.22399ZM24.9986 13.354C24.9986 11.6438 25.0142 9.94899 24.9173 8.24183C24.8204 6.25893 24.3638 4.49911 22.9004 3.04911C21.4338 1.59601 19.6607 1.14676 17.6594 1.05072C15.9333 0.954668 14.2228 0.97016 12.4998 0.97016C10.7736 0.97016 9.06313 0.954668 7.34013 1.05072C5.33881 1.14676 3.56265 1.59911 2.09918 3.04911C0.632595 4.5022 0.179172 6.25893 0.0822335 8.24183C-0.0147052 9.95209 0.000930124 11.6468 0.000930124 13.354C0.000930124 15.0612 -0.0147052 16.759 0.0822335 18.4662C0.179172 20.4491 0.635722 22.2089 2.09918 23.6589C3.56577 25.112 5.33881 25.5612 7.34013 25.6573C9.06626 25.7533 10.7768 25.7378 12.4998 25.7378C14.2259 25.7378 15.9364 25.7533 17.6594 25.6573C19.6607 25.5612 21.4369 25.1089 22.9004 23.6589C24.3669 22.2058 24.8204 20.4491 24.9173 18.4662C25.0174 16.759 24.9986 15.0643 24.9986 13.354ZM12.4966 19.7086C8.94743 19.7086 6.08305 16.8706 6.08305 13.354C6.08305 9.83745 8.94743 6.99942 12.4966 6.99942C16.0458 6.99942 18.9102 9.83745 18.9102 13.354C18.9102 16.8706 16.0458 19.7086 12.4966 19.7086ZM19.1729 8.22324C18.3442 8.22324 17.675 7.56021 17.675 6.73917C17.675 5.91812 18.3442 5.25509 19.1729 5.25509C20.0016 5.25509 20.6708 5.91812 20.6708 6.73917C20.671 6.93413 20.6324 7.12722 20.5572 7.30739C20.4821 7.48755 20.3717 7.65126 20.2326 7.78911C20.0935 7.92697 19.9282 8.03628 19.7464 8.11077C19.5646 8.18527 19.3697 8.22349 19.1729 8.22324Z" fill="#D6D818"/>
</svg>
