<svg width="30" height="25" viewBox="0 0 30 25" fill="none" xmlns="http://www.w3.org/2000/svg">
<path d="M29.2287 3.76175C28.1538 4.23365 26.9992 4.5525 25.7853 4.69662C27.0378 3.95407 27.9748 2.78539 28.4216 1.40864C27.2448 2.10117 25.9569 2.58863 24.6138 2.84984C23.7107 1.89439 22.5144 1.26111 21.2107 1.0483C19.9071 0.8355 18.569 1.05509 17.4042 1.67297C16.2394 2.29085 15.313 3.27246 14.769 4.46539C14.225 5.65833 14.0937 6.99584 14.3955 8.27029C12.0111 8.15167 9.67849 7.53763 7.54908 6.46802C5.41968 5.39842 3.54107 3.89715 2.03517 2.06164C1.52026 2.94167 1.22419 3.96199 1.22419 5.04863C1.22362 6.02685 1.46675 6.99009 1.93203 7.85289C2.39731 8.71568 3.07034 9.45135 3.89141 9.99463C2.93919 9.96461 2.00797 9.70968 1.17528 9.25107V9.32759C1.17518 10.6996 1.65418 12.0294 2.531 13.0913C3.40783 14.1532 4.62846 14.8819 5.9858 15.1536C5.10245 15.3905 4.17633 15.4254 3.27738 15.2556C3.66034 16.4362 4.40631 17.4685 5.41086 18.2081C6.41541 18.9477 7.62824 19.3576 8.87957 19.3803C6.75537 21.0325 4.13198 21.9286 1.43144 21.9247C0.953069 21.9248 0.4751 21.8972 0 21.8418C2.74121 23.5881 5.93217 24.5148 9.19109 24.5112C20.223 24.5112 26.2538 15.4584 26.2538 7.60708C26.2538 7.352 26.2474 7.09437 26.2358 6.83929C27.4089 5.99877 28.4215 4.95794 29.2261 3.76557L29.2287 3.76175Z" fill="#D6D818"/>
</svg>
